<svg width="72" height="72" viewBox="0 0 72 72" fill="none" xmlns="http://www.w3.org/2000/svg">
<path fill-rule="evenodd" clip-rule="evenodd" d="M21.2612 0.4645C25.0735 0.289 26.289 0.25 36 0.25C45.711 0.25 46.9265 0.29225 50.7355 0.4645C54.5445 0.63675 57.1445 1.2445 59.4195 2.12525C61.8017 3.0255 63.963 4.43275 65.7505 6.25275C67.5705 8.037 68.9745 10.195 69.8715 12.5805C70.7555 14.8555 71.36 17.4555 71.5355 21.258C71.711 25.0767 71.75 26.2922 71.75 36C71.75 45.711 71.7077 46.9265 71.5355 50.7387C71.3633 54.5412 70.7555 57.1412 69.8715 59.4162C68.9745 61.8021 67.5682 63.9636 65.7505 65.7505C63.963 67.5705 61.8017 68.9745 59.4195 69.8715C57.1445 70.7555 54.5445 71.36 50.742 71.5355C46.9265 71.711 45.711 71.75 36 71.75C26.289 71.75 25.0735 71.7077 21.2612 71.5355C17.4587 71.3632 14.8588 70.7555 12.5837 69.8715C10.198 68.9744 8.03642 67.5681 6.2495 65.7505C4.43073 63.9652 3.02327 61.8046 2.12525 59.4195C1.2445 57.1445 0.64 54.5445 0.4645 50.742C0.289 46.9232 0.25 45.7077 0.25 36C0.25 26.289 0.29225 25.0735 0.4645 21.2645C0.63675 17.4555 1.2445 14.8555 2.12525 12.5805C3.0246 10.1953 4.43314 8.03477 6.25275 6.2495C8.03713 4.43113 10.1965 3.02369 12.5805 2.12525C14.8555 1.2445 17.4555 0.64 21.258 0.4645H21.2612ZM50.4463 6.8995C46.6763 6.72725 45.5452 6.6915 36 6.6915C26.4548 6.6915 25.3237 6.72725 21.5537 6.8995C18.0665 7.05875 16.175 7.6405 14.914 8.13125C13.2467 8.78125 12.054 9.5515 10.8028 10.8027C9.61665 11.9567 8.70384 13.3614 8.13125 14.914C7.6405 16.175 7.05875 18.0665 6.8995 21.5537C6.72725 25.3237 6.6915 26.4547 6.6915 36C6.6915 45.5452 6.72725 46.6762 6.8995 50.4462C7.05875 53.9335 7.6405 55.825 8.13125 57.086C8.70325 58.6362 9.6165 60.0435 10.8028 61.1972C11.9565 62.3835 13.3638 63.2967 14.914 63.8687C16.175 64.3595 18.0665 64.9412 21.5537 65.1005C25.3237 65.2727 26.4515 65.3085 36 65.3085C45.5485 65.3085 46.6763 65.2727 50.4463 65.1005C53.9335 64.9412 55.825 64.3595 57.086 63.8687C58.7533 63.2187 59.946 62.4485 61.1973 61.1972C62.3835 60.0435 63.2968 58.6362 63.8688 57.086C64.3595 55.825 64.9413 53.9335 65.1005 50.4462C65.2728 46.6762 65.3085 45.5452 65.3085 36C65.3085 26.4547 65.2728 25.3237 65.1005 21.5537C64.9413 18.0665 64.3595 16.175 63.8688 14.914C63.2188 13.2467 62.4485 12.054 61.1973 10.8027C60.0433 9.61673 58.6385 8.70393 57.086 8.13125C55.825 7.6405 53.9335 7.05875 50.4463 6.8995ZM31.4338 47.0207C33.9839 48.0823 36.8235 48.2256 39.4675 47.4261C42.1116 46.6266 44.396 44.934 45.9307 42.6373C47.4654 40.3406 48.1552 37.5823 47.8822 34.8336C47.6091 32.0848 46.3903 29.5162 44.4338 27.5662C43.1865 26.3198 41.6784 25.3654 40.0181 24.7717C38.3577 24.1781 36.5864 23.9599 34.8316 24.133C33.0768 24.3061 31.3822 24.8661 29.8699 25.7727C28.3575 26.6793 27.0649 27.9099 26.0852 29.376C25.1055 30.8421 24.4631 32.5072 24.2042 34.2514C23.9452 35.9956 24.0762 37.7754 24.5878 39.4629C25.0993 41.1504 25.9786 42.7035 27.1623 44.0103C28.3461 45.3172 29.8049 46.3453 31.4338 47.0207ZM23.0065 23.0065C24.7128 21.3002 26.7385 19.9466 28.968 19.0232C31.1974 18.0997 33.5869 17.6244 36 17.6244C38.4131 17.6244 40.8026 18.0997 43.032 19.0232C45.2615 19.9466 47.2872 21.3002 48.9935 23.0065C50.6998 24.7128 52.0534 26.7385 52.9768 28.968C53.9003 31.1974 54.3756 33.5869 54.3756 36C54.3756 38.4131 53.9003 40.8026 52.9768 43.032C52.0534 45.2615 50.6998 47.2872 48.9935 48.9935C45.5474 52.4396 40.8735 54.3756 36 54.3756C31.1265 54.3756 26.4526 52.4396 23.0065 48.9935C19.5604 45.5474 17.6244 40.8735 17.6244 36C17.6244 31.1265 19.5604 26.4526 23.0065 23.0065ZM58.451 20.361C58.8738 19.9621 59.2123 19.4825 59.4465 18.9504C59.6806 18.4184 59.8056 17.8447 59.8141 17.2635C59.8226 16.6823 59.7143 16.1053 59.4958 15.5666C59.2773 15.028 58.9529 14.5387 58.5419 14.1276C58.1308 13.7166 57.6415 13.3922 57.1029 13.1737C56.5642 12.9552 55.9872 12.8469 55.406 12.8554C54.8247 12.8639 54.2511 12.9889 53.7191 13.223C53.187 13.4572 52.7074 13.7957 52.3085 14.2185C51.5328 15.0408 51.1081 16.1331 51.1245 17.2635C51.141 18.3939 51.5974 19.4734 52.3968 20.2727C53.1961 21.0721 54.2756 21.5285 55.406 21.545C56.5364 21.5614 57.6287 21.1367 58.451 20.361Z" fill="#241400"/>
</svg>
